<?xml version="1.0"?>
<svg xmlns="http://www.w3.org/2000/svg" viewBox="0 0 64 64" width="512" height="512"><g id="Schedue"><path d="M55,8H51V6a4,4,0,0,0-8,0V8H35V6a4,4,0,0,0-8,0V8H19V6a4,4,0,0,0-8,0V8H7a5.006,5.006,0,0,0-5,5V55a5.006,5.006,0,0,0,5,5H37a1,1,0,0,0,0-2H7a3,3,0,0,1-3-3V22H58V36a1,1,0,0,0,2,0V13A5.006,5.006,0,0,0,55,8ZM45,6a2,2,0,0,1,4,0v6a2,2,0,0,1-4,0ZM29,6a2,2,0,0,1,4,0v6a2,2,0,0,1-4,0ZM13,6a2,2,0,0,1,4,0v6a2,2,0,0,1-4,0ZM4,20V13a3,3,0,0,1,3-3h4v2a4,4,0,0,0,8,0V10h8v2a4,4,0,0,0,8,0V10h8v2a4,4,0,0,0,8,0V10h4a3,3,0,0,1,3,3v7Z"/><path d="M61,41a1,1,0,0,0,0-2H57a1,1,0,0,0-1,1v4a1,1,0,0,0,2,0V42.693a10.975,10.975,0,1,1-5.162-4,1,1,0,1,0,.7-1.875A13.018,13.018,0,1,0,59.235,41Z"/><path d="M50,46.184V41a1,1,0,0,0-2,0v5.184A3,3,0,0,0,46.184,48H43a1,1,0,0,0,0,2h3.184A2.993,2.993,0,1,0,50,46.184ZM49,50a1,1,0,1,1,1-1A1,1,0,0,1,49,50Z"/><path d="M27,33H23a2,2,0,0,1-2-2V28a2,2,0,0,1,2-2h4a2,2,0,0,1,2,2v3A2,2,0,0,1,27,33Zm-4-5v3h4V28Z"/><path d="M39,33H35a2,2,0,0,1-2-2V28a2,2,0,0,1,2-2h4a2,2,0,0,1,2,2v3A2,2,0,0,1,39,33Zm-4-5v3h4V28Z"/><path d="M15,33H11a2,2,0,0,1-2-2V28a2,2,0,0,1,2-2h4a2,2,0,0,1,2,2v3A2,2,0,0,1,15,33Zm-4-5v3h4V28Z"/><path d="M51,33H47a2,2,0,0,1-2-2V28a2,2,0,0,1,2-2h4a2,2,0,0,1,2,2v3A2,2,0,0,1,51,33Zm-4-5v3h4V28Z"/><path d="M27,44H23a2,2,0,0,1-2-2V39a2,2,0,0,1,2-2h4a2,2,0,0,1,2,2v3A2,2,0,0,1,27,44Zm-4-5v3h4V39Z"/><path d="M35,44a2,2,0,0,1-2-2V39a2,2,0,0,1,2-2h3a1,1,0,0,1,0,2H35v3a1,1,0,0,1,0,2Z"/><path d="M15,44H11a2,2,0,0,1-2-2V39a2,2,0,0,1,2-2h4a2,2,0,0,1,2,2v3A2,2,0,0,1,15,44Zm-4-5v3h4V39Z"/><path d="M27,55H23a2,2,0,0,1-2-2V50a2,2,0,0,1,2-2h4a2,2,0,0,1,2,2v3A2,2,0,0,1,27,55Zm-4-5v3h4V50Z"/><path d="M15,55H11a2,2,0,0,1-2-2V50a2,2,0,0,1,2-2h4a2,2,0,0,1,2,2v3A2,2,0,0,1,15,55Zm-4-5v3h4V50Z"/></g></svg>
