<?xml version="1.0" encoding="iso-8859-1"?>
<!-- Generator: Adobe Illustrator 19.0.0, SVG Export Plug-In . SVG Version: 6.00 Build 0)  -->
<svg version="1.1" id="Layer_1" xmlns="http://www.w3.org/2000/svg" xmlns:xlink="http://www.w3.org/1999/xlink" x="0px" y="0px"
	 viewBox="0 0 512 512" style="enable-background:new 0 0 512 512;" xml:space="preserve">
<g>
	<g>
		<path d="M88.097,20.609C80.841,10.115,69.933,3.076,57.382,0.787c-12.549-2.287-25.24,0.446-35.734,7.704
			C-0.012,23.47-5.449,53.279,9.53,74.939c7.256,10.494,18.164,17.533,30.715,19.822c2.893,0.528,5.791,0.788,8.669,0.788
			c9.612-0.001,18.99-2.908,27.065-8.492C97.639,72.079,103.076,42.27,88.097,20.609z M57.064,59.708
			c-3.187,2.204-7.041,3.035-10.853,2.339c-3.812-0.695-7.125-2.833-9.329-6.02c-4.549-6.58-2.899-15.634,3.681-20.184
			c2.453-1.696,5.301-2.578,8.221-2.578c0.873,0,1.755,0.079,2.633,0.239c3.812,0.695,7.125,2.833,9.329,6.02
			C65.295,46.103,63.644,55.157,57.064,59.708z"/>
	</g>
</g>
<g>
	<g>
		<path d="M217.551,75.823c-14.98-21.66-44.789-27.095-66.449-12.118c-10.493,7.256-17.533,18.165-19.822,30.715
			c-2.288,12.55,0.448,25.241,7.704,35.735c9.26,13.39,24.185,20.58,39.352,20.579c9.366-0.001,18.826-2.745,27.097-8.462
			C227.093,127.294,232.53,97.485,217.551,75.823z M186.518,114.919c-6.578,4.548-15.633,2.9-20.183-3.68
			c-2.204-3.188-3.035-7.043-2.34-10.854c0.695-3.812,2.833-7.125,6.02-9.329v-0.001c2.513-1.736,5.385-2.569,8.23-2.569
			c4.607,0,9.141,2.184,11.954,6.25C194.748,101.314,193.098,110.369,186.518,114.919z"/>
	</g>
</g>
<g>
	<g>
		<path d="M306.263,204.111c-14.978-21.659-44.786-27.096-66.448-12.119v0.001c-21.66,14.978-27.097,44.787-12.118,66.449
			c9.261,13.391,24.186,20.579,39.352,20.579c9.367,0,18.828-2.745,27.096-8.461c10.493-7.256,17.533-18.165,19.821-30.715
			C316.256,227.294,313.52,214.605,306.263,204.111z M281.253,233.878c-0.695,3.811-2.833,7.125-6.021,9.329
			c-6.576,4.55-15.633,2.9-20.183-3.68c-4.549-6.58-2.899-15.634,3.68-20.183c6.579-4.548,15.633-2.9,20.185,3.681
			C281.118,226.212,281.948,230.066,281.253,233.878z"/>
	</g>
</g>
<g>
	<g>
		<path d="M287.4,363.558c-7.255-10.493-18.164-17.533-30.714-19.821c-12.551-2.288-25.241,0.447-35.734,7.704l0.001-0.001
			c-10.493,7.256-17.533,18.165-19.822,30.715c-2.289,12.55,0.447,25.241,7.703,35.735c9.26,13.391,24.185,20.58,39.352,20.579
			c9.366-0.001,18.828-2.745,27.097-8.462C296.944,415.029,302.38,385.219,287.4,363.558z M256.368,402.655
			c-6.579,4.548-15.634,2.899-20.183-3.68c-2.204-3.188-3.035-7.043-2.34-10.854c0.695-3.812,2.833-7.125,6.02-9.329l0.001-0.001
			c2.453-1.696,5.301-2.578,8.221-2.578c0.875,0,1.755,0.079,2.633,0.238c3.812,0.695,7.125,2.833,9.33,6.021
			C264.598,389.051,262.947,398.105,256.368,402.655z"/>
	</g>
</g>
<g>
	<g>
		<path d="M502.47,283.834c-14.979-21.661-44.79-27.097-66.449-12.117c-21.661,14.978-27.097,44.788-12.117,66.449
			c9.26,13.39,24.185,20.579,39.352,20.579c9.366,0,18.826-2.745,27.097-8.462C512.014,335.305,517.449,305.495,502.47,283.834z
			 M471.438,322.931c-6.577,4.547-15.632,2.901-20.183-3.681c-4.55-6.579-2.899-15.633,3.681-20.183
			c2.512-1.736,5.385-2.569,8.229-2.569c4.607,0,9.141,2.184,11.954,6.251C479.669,309.327,478.018,318.381,471.438,322.931z"/>
	</g>
</g>
<g>
	<g>
		<path d="M467.375,437.089c-14.977-21.66-44.786-27.097-66.449-12.117c-21.66,14.978-27.097,44.787-12.118,66.449
			C398.068,504.812,412.993,512,428.16,512c9.366,0,18.826-2.745,27.097-8.462C476.917,488.56,482.354,458.751,467.375,437.089z
			 M436.341,476.185c-6.576,4.547-15.632,2.901-20.182-3.68c-4.55-6.58-2.899-15.634,3.681-20.184
			c2.512-1.736,5.385-2.569,8.23-2.569c4.607,0,9.141,2.184,11.952,6.25C444.573,462.581,442.921,471.635,436.341,476.185z"/>
	</g>
</g>
<g>
	<g>
		
			<rect x="348.451" y="196.123" transform="matrix(0.3348 -0.9423 0.9423 0.3348 -12.6413 524.3733)" width="33.255" height="150.035"/>
	</g>
</g>
<g>
	<g>
		
			<rect x="398.099" y="370.977" transform="matrix(0.1953 -0.9807 0.9807 0.1953 -21.5457 748.9478)" width="95.059" height="33.253"/>
	</g>
</g>
<g>
	<g>
		
			<rect x="321.477" y="361.401" transform="matrix(0.3782 -0.9257 0.9257 0.3782 -185.4931 578.7919)" width="33.254" height="132.15"/>
	</g>
</g>
<g>
	<g>
		
			<rect x="208.4" y="294.378" transform="matrix(0.1175 -0.9931 0.9931 0.1175 -81.5572 530.2364)" width="98.314" height="33.255"/>
	</g>
</g>
<g>
	<g>
		
			<rect x="205.999" y="120.287" transform="matrix(0.8225 -0.5688 0.5688 0.8225 -55.5463 156.2969)" width="33.255" height="93.702"/>
	</g>
</g>
<g>
	<g>
		<rect x="96.913" y="36.137" transform="matrix(0.3923 -0.9198 0.9198 0.3923 -0.3344 150.2411)" width="33.253" height="78.473"/>
	</g>
</g>
<g>
</g>
<g>
</g>
<g>
</g>
<g>
</g>
<g>
</g>
<g>
</g>
<g>
</g>
<g>
</g>
<g>
</g>
<g>
</g>
<g>
</g>
<g>
</g>
<g>
</g>
<g>
</g>
<g>
</g>
</svg>
