<?xml version="1.0" encoding="iso-8859-1"?>
<!-- Generator: Adobe Illustrator 16.0.0, SVG Export Plug-In . SVG Version: 6.00 Build 0)  -->
<!DOCTYPE svg PUBLIC "-//W3C//DTD SVG 1.1//EN" "http://www.w3.org/Graphics/SVG/1.1/DTD/svg11.dtd">
<svg version="1.1" id="Capa_1" xmlns="http://www.w3.org/2000/svg" xmlns:xlink="http://www.w3.org/1999/xlink" x="0px" y="0px"
	 width="576.161px" height="576.162px" viewBox="0 0 576.161 576.162" style="enable-background:new 0 0 576.161 576.162;"
	 xml:space="preserve">
<g>
	<g>
		<path d="M438.047,199.946c-23.789-24.321-61.705-48.527-104.109-66.447c-42.652-18.025-86.667-28.364-120.771-28.364
			c-31.285,0-52.15,8.605-58.752,24.227c-9.355,22.13,11.359,54.101,53.546,84.583c-70.38-34.178-117.075-77.654-106.884-101.768
			c4.39-10.392,19.862-16.116,43.562-16.116c15.614,0,34.692,2.517,55.166,7.279c1.089,0.249,2.154-0.408,2.436-1.469
			c0.282-1.069-0.338-2.163-1.399-2.473c-33.766-9.902-64.774-15.133-89.67-15.133c-29.552,0-48.271,7.336-54.138,21.212
			c-12.832,30.351,41.196,82.62,128.487,124.342c23.517,25.831,62.894,51.587,108.125,70.698
			c42.648,18.025,86.668,28.368,120.771,28.368c31.285,0,52.15-8.604,58.752-24.23c10.176-24.068-15.066-59.466-63.9-91.78
			c36.68,16.426,68.955,36.1,91.705,55.969c23.877,20.854,34.555,39.951,29.295,52.388c-4.391,10.392-19.861,16.115-43.562,16.115
			c-15.613,0-34.691-2.517-55.164-7.278c-1.082-0.253-2.15,0.408-2.438,1.469c-0.281,1.069,0.34,2.162,1.4,2.473
			c33.766,9.902,64.773,15.137,89.67,15.137c29.547,0,48.266-7.336,54.137-21.216C587.502,296.72,528.938,241.726,438.047,199.946z
			 M413.641,256.193c1.6-3.791,2.176-7.964,1.727-12.477c10.176,13.696,13.607,26.104,9.648,35.459
			c-5.104,12.082-22.004,18.74-47.576,18.74c-29.156,0-66.896-8.882-103.534-24.37c-19.698-8.327-38.173-18.127-54.313-28.768
			c51.714,20.804,102.236,32.628,139.904,32.628C389.051,277.414,407.773,270.078,413.641,256.193z M217.711,177.217
			c-2.428,5.736-2.513,12.285-0.277,19.547c-14.239-16.271-19.502-30.931-14.855-41.926c5.104-12.081,22.003-18.735,47.577-18.735
			c29.16,0,66.896,8.882,103.534,24.366c16.246,6.871,31.82,14.827,45.885,23.419c-47.398-17.834-93.131-27.891-127.721-27.891
			C242.301,155.997,223.579,163.336,217.711,177.217z"/>
		<path d="M99.314,446.762c19.151,0.869,44.154-4.374,69.042-14.48c28.189-11.44,50.645-26.662,62.693-41.159
			c0.049,0.196,0.118,0.388,0.229,0.567c0.555,0.951,1.767,1.294,2.742,0.763c38.438-21.004,59.413-44.108,53.423-58.854
			c-3.329-8.217-14.251-12.559-31.571-12.559c-19.433,0-44.692,5.386-71.155,15.166l-0.914-0.005
			c-18.719,0-41.771,5.178-64.921,14.57c-22.444,9.106-42.195,21.089-55.61,33.737c-2.142,2.02-4.088,4.022-5.83,6.006
			c-0.029-0.286-0.114-0.571-0.27-0.832c-0.563-0.955-1.779-1.302-2.742-0.764C15.992,409.927-4.975,433.033,1.01,447.774
			c3.329,8.221,14.248,12.562,31.567,12.562C50.803,460.336,74.491,455.518,99.314,446.762z M90.456,413.546
			c0.93,2.289,2.448,4.28,4.541,5.957c-9.135-1.24-15.263-4.528-17.258-9.445c-2.664-6.568,1.942-16.12,12.64-26.206
			c11.331-10.681,28.087-20.828,47.181-28.58c5.439-2.207,10.938-4.157,16.377-5.818C110.905,370.78,83.867,397.308,90.456,413.546z
			 M178.258,404.134c16.532-14.027,23.542-26.924,19.731-36.304c-0.535-1.322-1.273-2.55-2.216-3.672
			c7.218,1.542,11.991,4.581,13.721,8.845c5.761,14.194-21.632,39.286-59.813,54.786c-7.393,2.995-14.834,5.509-22.101,7.467
			C147.658,425.933,165.304,415.122,178.258,404.134z M239.556,363.567c-3.725-9.176-15.806-14.231-34.015-14.231
			c-5.194,0-10.795,0.412-16.679,1.216c19.82-6.695,38.707-10.42,53.407-10.42c13.187,0,21.685,3.031,23.921,8.543
			c3.651,8.988-9.131,24.309-32.652,39.267C240.029,379.054,242.399,370.576,239.556,363.567z M47.682,419.483
			c3.721,9.181,15.802,14.235,34.011,14.235c3.305,0,6.797-0.172,10.433-0.506c-17.071,5.186-33.118,8.033-45.949,8.033
			c-13.187,0-21.681-3.031-23.917-8.543c-3.656-9.013,9.205-24.395,32.836-39.389C47.343,403.098,44.711,412.176,47.682,419.483z"/>
		<path d="M456.453,445.277l-29.812,6.137l-23.664-19.52c-3.754-3.092-7.242-1.685-7.797,3.146l-3.488,30.478l-25.721,16.271
			c-4.109,2.6-3.791,6.189,0.717,8.021l28.549,11.592l6.977,30.922c1.072,4.745,4.717,5.794,8.145,2.342l21.02-21.163l29.82,0.645
			c4.859,0.106,6.617-3.088,3.922-7.136l-17.758-26.646l13.902-28.927C463.373,447.056,461.219,444.297,456.453,445.277z"/>
		<path d="M295.424,439.867l-13.636,2.807l-10.82-8.927c-1.718-1.416-3.313-0.771-3.566,1.44l-1.596,13.938l-11.763,7.441
			c-1.876,1.188-1.729,2.832,0.331,3.668l13.056,5.3l3.19,14.142c0.49,2.171,2.158,2.648,3.725,1.073l9.613-9.678l13.639,0.294
			c2.225,0.049,3.027-1.412,1.791-3.265l-8.119-12.187l6.357-13.228C298.586,440.683,297.602,439.417,295.424,439.867z"/>
		<path d="M421.197,82.814l15.631-0.053l10.807,11.285c1.764,1.84,3.596,1.306,4.098-1.191l3.297-16.451l15.867-5.565
			c2.402-0.845,2.631-2.664,0.502-4.063l-13.318-8.768l-1.533-15.998c-0.246-2.538-2.061-3.309-4.057-1.722l-12.582,9.996
			l-15.553-3.5c-2.484-0.559-3.697,0.89-2.709,3.235l6.283,14.872l-8.871,14.04C417.684,81.084,418.65,82.822,421.197,82.814z"/>
		<path d="M41.757,292.322l15.63-0.053l10.808,11.285c1.762,1.84,3.594,1.306,4.096-1.191l3.296-16.451l15.867-5.569
			c2.403-0.845,2.632-2.664,0.502-4.063l-13.317-8.772l-1.534-15.998c-0.245-2.538-2.061-3.309-4.056-1.722l-12.583,9.996
			l-15.553-3.5c-2.484-0.559-3.696,0.889-2.709,3.235l6.283,14.872l-8.87,14.039C38.244,290.591,39.211,292.33,41.757,292.322z"/>
	</g>
</g>
<g>
</g>
<g>
</g>
<g>
</g>
<g>
</g>
<g>
</g>
<g>
</g>
<g>
</g>
<g>
</g>
<g>
</g>
<g>
</g>
<g>
</g>
<g>
</g>
<g>
</g>
<g>
</g>
<g>
</g>
</svg>
