<?xml version="1.0" encoding="iso-8859-1"?>
<!-- Generator: Adobe Illustrator 18.0.0, SVG Export Plug-In . SVG Version: 6.00 Build 0)  -->
<!DOCTYPE svg PUBLIC "-//W3C//DTD SVG 1.1//EN" "http://www.w3.org/Graphics/SVG/1.1/DTD/svg11.dtd">
<svg version="1.1" id="Capa_1" xmlns="http://www.w3.org/2000/svg" xmlns:xlink="http://www.w3.org/1999/xlink" x="0px" y="0px"
	 viewBox="0 0 487.209 487.209" style="enable-background:new 0 0 487.209 487.209;" xml:space="preserve">
<g id="XMLID_481_">
	<path id="XMLID_485_" d="M482.749,327.984c-4.608-4.486-11.561-5.501-17.254-2.511c-84.865,44.542-192.218,31.155-263.564-40.19
		c-71.348-71.349-84.731-178.707-40.189-263.569c2.992-5.686,1.965-12.65-2.53-17.242c-4.478-4.597-11.421-5.789-17.175-2.927
		c-24.167,11.997-46.844,28.03-66.981,48.166c-100.071,100.081-100.071,262.352,0,362.433c100.104,100.088,262.36,100.088,362.446,0
		c20.135-20.136,36.162-42.798,48.16-66.966C488.521,339.42,487.34,332.479,482.749,327.984z"/>
	<path id="XMLID_484_" d="M305.553,272.248c-0.351,0.869-0.093,1.878,0.658,2.463c0.737,0.583,1.778,0.614,2.542,0.072
		l33.027-23.458l37.503,15.365c0.884,0.351,1.874,0.088,2.468-0.647c0.589-0.736,0.607-1.775,0.064-2.545l-23.46-33.042
		l15.363-37.489c0.357-0.871,0.1-1.878-0.65-2.464c-0.737-0.583-1.779-0.614-2.55-0.072l-33.021,23.457l-37.51-15.36
		c-0.878-0.354-1.865-0.092-2.461,0.645c-0.595,0.735-0.607,1.778-0.063,2.545l23.461,33.042L305.553,272.248z"/>
	<path id="XMLID_483_" d="M218.773,94.54l27.255,2.017L258.9,120.65c0.431,0.832,1.377,1.274,2.306,1.074
		c0.925-0.194,1.594-0.978,1.677-1.92l2.017-27.237l24.099-12.884c0.832-0.448,1.267-1.384,1.076-2.311
		c-0.193-0.92-0.975-1.607-1.921-1.671l-27.254-2.016l-12.874-24.094c-0.434-0.833-1.378-1.273-2.304-1.072
		c-0.928,0.192-1.596,0.975-1.678,1.919l-2.019,27.238l-24.098,12.882c-0.833,0.448-1.264,1.384-1.077,2.312
		C217.045,93.79,217.829,94.477,218.773,94.54z"/>
	<path id="XMLID_482_" d="M391.311,67.296l-0.831,15.139c-0.045,0.934,0.532,1.798,1.426,2.11c0.878,0.313,1.873,0,2.411-0.768
		l8.797-12.338l15.164,0.823c0.945,0.056,1.81-0.521,2.11-1.415c0.319-0.888,0-1.88-0.765-2.423l-12.347-8.806l0.815-15.153
		c0.044-0.936-0.532-1.8-1.41-2.111c-0.895-0.311-1.886,0-2.43,0.768l-8.813,12.355l-15.13-0.824
		c-0.944-0.055-1.808,0.529-2.107,1.416c-0.326,0.888,0,1.879,0.762,2.424L391.311,67.296z"/>
</g>
<g>
</g>
<g>
</g>
<g>
</g>
<g>
</g>
<g>
</g>
<g>
</g>
<g>
</g>
<g>
</g>
<g>
</g>
<g>
</g>
<g>
</g>
<g>
</g>
<g>
</g>
<g>
</g>
<g>
</g>
</svg>
