<svg xmlns="http://www.w3.org/2000/svg" height="939pt" version="1.1" viewBox="1 -8 939.99967 939" width="939pt">
<g id="surface1">
<path d="M 280.347656 0.5 L 313.335938 0.5 L 313.335938 33.476562 L 280.347656 33.476562 Z M 280.347656 0.5 " style=" stroke:none;fill-rule:nonzero;fill:rgb(0%,0%,0%);fill-opacity:1;" />
<path d="M 16.492188 66.453125 L 49.472656 66.453125 L 49.472656 99.441406 L 16.492188 99.441406 Z M 16.492188 66.453125 " style=" stroke:none;fill-rule:nonzero;fill:rgb(0%,0%,0%);fill-opacity:1;" />
<path d="M 0 330.320312 L 32.976562 330.320312 L 32.976562 363.304688 L 0 363.304688 Z M 0 330.320312 " style=" stroke:none;fill-rule:nonzero;fill:rgb(0%,0%,0%);fill-opacity:1;" />
<path d="M 709.125 825.058594 L 742.109375 825.058594 L 742.109375 858.042969 L 709.125 858.042969 Z M 709.125 825.058594 " style=" stroke:none;fill-rule:nonzero;fill:rgb(0%,0%,0%);fill-opacity:1;" />
<path d="M 907.023438 198.390625 L 940 198.390625 L 940 231.375 L 907.023438 231.375 Z M 907.023438 198.390625 " style=" stroke:none;fill-rule:nonzero;fill:rgb(0%,0%,0%);fill-opacity:1;" />
<path d="M 544.210938 891.023438 L 577.195312 891.023438 L 577.195312 924.007812 L 544.210938 924.007812 Z M 544.210938 891.023438 " style=" stroke:none;fill-rule:nonzero;fill:rgb(0%,0%,0%);fill-opacity:1;" />
<path d="M 808.070312 660.140625 L 841.050781 660.140625 L 841.050781 693.128906 L 808.070312 693.128906 Z M 808.070312 660.140625 " style=" stroke:none;fill-rule:nonzero;fill:rgb(0%,0%,0%);fill-opacity:1;" />
<path d="M 587.566406 204.988281 C 571.785156 212.101562 556.992188 221.199219 543.519531 232.070312 C 538.984375 235.371094 534.410156 238.660156 529.832031 241.964844 C 502.996094 262.878906 469.285156 272.972656 435.363281 270.222656 C 429.511719 269.601562 423.625 269.285156 417.742188 269.285156 C 338.496094 268.386719 271.109375 326.890625 260.855469 405.46875 C 257.582031 433.789062 246.941406 460.765625 229.996094 483.691406 L 204.570312 518.320312 C 169.066406 566.148438 174.773438 632.945312 217.898438 674.046875 C 262.742188 716.699219 331.582031 721.4375 381.835938 685.308594 L 441.4375 641.910156 C 465.128906 624.675781 494.175781 616.445312 523.378906 618.6875 C 563.449219 621.585938 602.953125 607.871094 632.585938 580.757812 C 660.691406 555.46875 676.984375 519.617188 677.527344 481.808594 C 678.277344 422.539062 687.816406 363.703125 705.828125 307.234375 C 714.101562 279.179688 706.996094 248.839844 687.105469 227.394531 C 661.742188 200.078125 622.1875 191.175781 587.566406 204.988281 Z M 296.839844 643.652344 L 263.859375 643.652344 L 263.859375 610.671875 L 296.839844 610.671875 Z M 562.238281 496.445312 C 531.296875 543.519531 479.175781 560.476562 423.929688 575.039062 C 414.464844 577.617188 404.707031 578.960938 394.894531 579.054688 C 381.246094 579.398438 367.800781 575.722656 356.230469 568.46875 C 296.855469 529.730469 337.457031 437.730469 351.273438 410.429688 C 376.628906 356.984375 429.570312 322.042969 488.683594 319.730469 C 576.09375 315.132812 595.097656 359.445312 598.765625 386.261719 C 604.273438 426.277344 582.136719 466.152344 562.238281 496.445312 Z M 562.238281 496.445312 " style=" stroke:none;fill-rule:nonzero;fill:rgb(0%,0%,0%);fill-opacity:1;" />
<path d="M 501.496094 352.351562 C 498.019531 352.351562 494.355469 352.449219 490.46875 352.648438 C 443.125 354.335938 400.71875 382.433594 380.730469 425.398438 C 376.046875 434.578125 336.207031 515.984375 374.214844 540.835938 C 387.121094 547.035156 401.945312 547.855469 415.441406 543.125 C 466.125 529.789062 510.042969 515.6875 534.601562 478.316406 C 551.351562 452.851562 570.039062 419.890625 566.050781 390.648438 C 564.789062 380.914062 560.898438 352.351562 501.496094 352.351562 Z M 501.496094 352.351562 " style=" stroke:none;fill-rule:nonzero;fill:rgb(0%,0%,0%);fill-opacity:1;" />
<path d="M 878.707031 62.285156 C 886.058594 46.746094 892.589844 30.820312 898.28125 14.59375 L 892.871094 17.476562 C 888.914062 19.59375 885.003906 21.6875 881.148438 23.613281 C 847.367188 40.519531 811.832031 53.664062 775.183594 62.8125 L 762.601562 65.972656 C 705.378906 82.820312 612.144531 75.097656 553.773438 59.1875 L 536.773438 54.535156 C 491.105469 42.082031 451.710938 72.992188 409.917969 105.660156 C 379.136719 129.769531 347.253906 154.703125 310.675781 163.707031 C 299.136719 166.539062 287.589844 168.527344 276.488281 170.464844 C 250.675781 172.828125 225.726562 180.988281 203.496094 194.3125 C 169.613281 218.359375 159.851562 265.378906 152.011719 303.160156 L 151.804688 304.164062 L 148.371094 320.652344 C 141.339844 362.457031 122.882812 401.496094 95.042969 433.445312 C 91.453125 437.433594 87.804688 441.371094 84.136719 445.34375 C 62.875 468.269531 42.910156 489.871094 38.976562 519.332031 C 35.335938 559.847656 36.703125 600.65625 43.039062 640.832031 C 50.746094 688.199219 51.441406 736.441406 45.132812 784.019531 C 36.921875 823.070312 23.761719 860.9375 5.945312 896.660156 L 3.347656 902.429688 C 8.703125 899.136719 14.082031 895.839844 19.378906 892.535156 C 27.425781 887.480469 35.371094 882.492188 43.175781 878.039062 C 109.457031 838.277344 180.28125 847.511719 248.707031 856.421875 C 304.019531 863.65625 356.304688 870.46875 404.710938 852.070312 C 421.59375 844.714844 437.523438 835.339844 452.121094 824.125 C 469.152344 811.050781 487.808594 800.273438 507.652344 792.070312 C 530.734375 784.289062 554.457031 778.59375 578.558594 775.03125 C 618.996094 767.914062 653.910156 761.746094 685.75 732.871094 C 723.679688 698.40625 733.246094 655.738281 744.261719 606.328125 L 747.328125 592.746094 C 761.804688 537.355469 787.011719 485.335938 821.539062 439.664062 C 855.089844 391.761719 864.78125 347.714844 852.050781 301.042969 C 837.371094 242.773438 838.339844 181.667969 854.863281 123.890625 C 861.148438 102.757812 869.105469 82.144531 878.707031 62.285156 Z M 98.945312 627.160156 L 65.964844 627.160156 L 65.964844 594.175781 L 98.945312 594.175781 Z M 197.898438 792.070312 L 164.910156 792.070312 L 164.910156 759.09375 L 197.898438 759.09375 Z M 710.507812 482.230469 C 709.898438 529.15625 689.734375 573.6875 654.867188 605.101562 C 618.453125 638.238281 570.046875 655.015625 520.941406 651.515625 C 499.539062 649.90625 478.246094 655.917969 460.84375 668.484375 L 401.265625 711.914062 C 337.976562 757.339844 251.308594 751.332031 194.898438 697.609375 C 139.863281 645.082031 132.613281 559.769531 178 498.714844 L 203.433594 464.082031 C 216.917969 445.769531 225.394531 424.277344 228.027344 401.695312 C 241.386719 298.417969 335.398438 225.144531 438.8125 237.417969 C 464.8125 239.199219 490.539062 231.167969 510.882812 214.882812 C 515.289062 211.78125 519.640625 208.601562 524.070312 205.402344 C 539.804688 192.800781 557.101562 182.316406 575.542969 174.222656 C 622.90625 155.492188 676.90625 167.789062 711.5 205.167969 C 739.183594 235.121094 749.050781 277.429688 737.453125 316.535156 C 720.34375 370.132812 711.265625 425.976562 710.507812 482.230469 Z M 775.089844 412.777344 L 742.109375 412.777344 L 742.109375 379.792969 L 775.089844 379.792969 Z M 775.089844 165.40625 L 742.109375 165.40625 L 742.109375 132.425781 L 775.089844 132.425781 Z M 775.089844 165.40625 " style=" stroke:none;fill-rule:nonzero;fill:rgb(0%,0%,0%);fill-opacity:1;" />
</g>
</svg>